<svg width="39" height="39" viewBox="0 0 39 39" fill="none" xmlns="http://www.w3.org/2000/svg">
<path d="M19.5 0H17.7413V9.27278H21.2575V3.61346C29.3146 4.49069 35.4815 11.2767 35.4815 19.5001C35.4815 28.3138 28.3115 35.4836 19.5 35.4836C10.6881 35.4836 3.51854 28.3138 3.51854 19.5001C3.51854 15.8929 4.69068 12.4891 6.90696 9.65774L7.52666 8.8683L4.75636 6.70032L4.13802 7.48987C1.43091 10.9463 0 15.0998 0 19.5C0 30.2518 8.74721 39 19.5 39C30.2518 39 39 30.2531 39 19.5C39 8.74721 30.2518 0 19.5 0Z" fill="black"/>
<path d="M16.6971 22.4882C17.3342 23.252 18.2294 23.721 19.2154 23.809C19.3293 23.8199 19.443 23.8253 19.5549 23.8253C21.4574 23.8253 23.0832 22.3385 23.254 20.443C23.3434 19.4556 23.0425 18.4909 22.4062 17.7262C21.7691 16.9614 20.8746 16.4917 19.8859 16.4017C19.5609 16.3732 19.2312 16.3905 18.8809 16.4593L8.14062 7.35742L16.0302 18.9519C15.931 19.2406 15.8707 19.51 15.8468 19.7723C15.7576 20.7594 16.0595 21.7245 16.6971 22.4882Z" fill="black"/>
</svg>
