<svg width="38" height="38" viewBox="0 0 38 38" fill="none" xmlns="http://www.w3.org/2000/svg">
<path d="M32.8938 23.1713C32.591 22.994 32.2033 23.0953 32.0271 23.3975L24.765 35.7835C24.2404 36.6913 23.0767 37.0043 22.1967 36.4962L20.7821 35.5795C20.4881 35.3887 20.0959 35.4724 19.9059 35.7663C19.7151 36.0597 19.7994 36.4525 20.0927 36.6425L21.5352 37.5763C22.0326 37.8639 22.5768 38.0002 23.114 38.0002C24.2093 38.0002 25.2749 37.4332 25.8596 36.4208L33.1191 24.0379C33.2961 23.7364 33.1954 23.348 32.8938 23.1713Z" fill="black"/>
<path d="M34.8105 0H24.6741C22.714 0 21.2538 0.623996 19.7916 2.08617C19.5439 2.33392 19.5439 2.7343 19.7916 2.98197C20.0393 3.22971 20.4397 3.22971 20.6874 2.98197C21.9215 1.74786 23.0396 1.267 24.6741 1.267H34.8105C35.8583 1.267 36.7111 2.11973 36.7111 3.16757V13.304C36.7111 14.9392 36.2302 16.0566 34.9955 17.2907L16.1811 36.1318C15.4627 36.849 14.2108 36.8496 13.4937 36.1318L1.84634 24.4844C1.48716 24.1252 1.28946 23.6482 1.28946 23.1401C1.28946 22.6326 1.48709 22.1555 1.84567 21.797L18.8507 4.81602C19.1124 4.88254 19.3747 4.94906 19.6465 5.02189C22.2237 5.71241 24.2573 6.42579 25.7733 7.06248C25.4749 7.61491 25.3076 8.23386 25.3076 8.86928C25.3076 10.9656 27.0124 12.6704 29.1088 12.6704C31.2051 12.6704 32.9099 10.9656 32.9099 8.86928C32.9099 6.77294 31.2051 5.06814 29.1088 5.06814C28.7584 5.06814 28.4753 5.35197 28.4753 5.70164C28.4753 6.05132 28.7584 6.33514 29.1088 6.33514C30.5064 6.33514 31.6429 7.4717 31.6429 8.86921C31.6429 10.2668 30.5063 11.4033 29.1088 11.4033C27.7113 11.4033 26.5747 10.2667 26.5747 8.86921C26.5747 8.41307 26.6995 7.9677 26.9295 7.58001C28.0268 8.1052 28.7129 8.54804 28.9841 8.83061C28.8681 8.86357 28.6888 8.90032 28.4183 8.9237C28.0699 8.95474 27.8121 9.26202 27.8431 9.61043C27.8723 9.93984 28.1485 10.1888 28.4735 10.1888C28.4918 10.1888 28.5108 10.1876 28.5298 10.1863C28.9195 10.1515 30.1048 10.047 30.3329 9.19736C30.9569 6.86663 21.8133 4.29069 19.9741 3.7978C17.1606 3.04388 14.4586 2.52821 12.3648 2.3458C9.79207 2.12092 8.53895 2.41358 8.30331 3.29415C8.19054 3.71673 7.88964 4.83866 13.0262 6.86403C13.3513 6.99262 13.7199 6.833 13.8479 6.50738C13.9759 6.18176 13.8162 5.81367 13.4906 5.68568C11.0091 4.70688 9.98086 3.98972 9.65146 3.65207C10.4326 3.42274 13.1042 3.48926 17.4065 4.46738L0.950549 20.9006C0.351869 21.4993 0.0224609 22.2943 0.0224609 23.1401C0.0224609 23.9865 0.351869 24.7821 0.950549 25.3802L12.5979 37.0275C13.1953 37.6255 13.991 37.955 14.8368 37.955C15.6832 37.955 16.4782 37.6256 17.0769 37.0269L35.8919 18.1865C37.3547 16.7244 37.9781 15.2641 37.9781 13.304V3.16764C37.9781 1.42097 36.5572 0 34.8105 0Z" fill="black"/>
<path d="M20.743 16.6565C20.4953 16.4088 20.0948 16.4088 19.8472 16.6565L19.5051 16.9986C19.0039 16.6667 18.4059 16.4709 17.761 16.4709C16.0144 16.4709 14.5933 17.8919 14.5933 19.6386C14.5933 20.5825 14.983 21.3288 15.3225 21.8742C15.6393 22.3829 15.8604 23.1077 15.8604 23.4397C15.8604 24.4875 15.0077 25.3403 13.9598 25.3403C12.912 25.3403 12.0593 24.4875 12.0593 23.4397C12.0593 23.0551 12.1739 22.6845 12.3906 22.3678C12.5882 22.0795 12.5141 21.6849 12.2259 21.4872C11.937 21.2902 11.5429 21.3637 11.3453 21.652C10.9835 22.1803 10.7922 22.7986 10.7922 23.4398C10.7922 24.0847 10.988 24.6827 11.3199 25.1838L10.9778 25.5259C10.7301 25.7736 10.7301 26.1741 10.9778 26.4217C11.1013 26.5453 11.2636 26.6073 11.4257 26.6073C11.5879 26.6073 11.7501 26.5453 11.8736 26.4217L12.2157 26.0796C12.7168 26.4116 13.3148 26.6073 13.9598 26.6073C15.7064 26.6073 17.1274 25.1864 17.1274 23.4397C17.1274 22.8227 16.8208 21.8825 16.3982 21.204C16.0213 20.599 15.8603 20.1308 15.8603 19.6386C15.8603 18.5907 16.7131 17.738 17.7609 17.738C18.269 17.738 18.7283 17.9407 19.0691 18.2669C19.0799 18.2784 19.0837 18.2935 19.0944 18.305C19.1059 18.3157 19.121 18.3195 19.1324 18.3303C19.4587 18.6711 19.6614 19.1304 19.6614 19.6385C19.6614 20.1465 19.4631 20.6248 19.1033 20.9847C18.8555 21.2318 18.8555 21.6328 19.1026 21.8805C19.349 22.1282 19.7507 22.1276 19.9984 21.8812C20.5977 21.2818 20.9284 20.4855 20.9284 19.6385C20.9284 18.9935 20.7326 18.3955 20.4007 17.8944L20.7428 17.5523C20.9907 17.3046 20.9907 16.9042 20.743 16.6565Z" fill="black"/>
</svg>
