<svg width="83" height="38" viewBox="0 0 83 38" fill="none" xmlns="http://www.w3.org/2000/svg">
<path d="M16.49 29.5215H8.50977V30.173H16.49V29.5215Z" fill="black"/>
<path d="M16.49 30.9883H8.50977V31.6398H16.49V30.9883Z" fill="black"/>
<path d="M9.68405 32.9816H15.3166C15.7256 32.9816 16.0853 32.7721 16.2955 32.4551H8.70508C8.91527 32.7721 9.27508 32.9816 9.68405 32.9816Z" fill="black"/>
<path d="M22.9181 19.6295H22.4778V18.8644C22.4778 18.7023 22.3464 18.5709 22.1844 18.5709H20.2459C20.2081 17.9906 20.1683 17.4103 20.1244 16.8302C20.0694 16.2603 19.6041 15.7993 19.0256 15.7852C15.0354 15.7852 9.96514 15.7852 5.97507 15.7852C5.39629 15.7993 4.93142 16.2603 4.87597 16.8302C4.83225 17.4103 4.79232 17.9907 4.75462 18.5709H2.81635C2.6543 18.5709 2.52289 18.7023 2.52289 18.8644V19.6295H2.08257C2.0327 19.6295 1.99219 19.6701 1.99219 19.7202V22.4734C1.99219 22.5234 2.0327 22.5641 2.08257 22.5641H2.52289V23.564C2.52289 23.7261 2.6543 23.8575 2.81635 23.8575H4.49514C4.44988 25.2257 4.42116 26.5943 4.4102 27.9632C3.31629 28.1876 2.4911 29.1578 2.4911 30.317V33.7286C2.4911 35.0327 3.53546 36.0965 4.83187 36.1295C4.86366 36.1346 4.89623 36.1379 4.92924 36.1393V37.6938C4.92924 37.8626 5.06667 37.9998 5.23526 37.9998H7.20757C7.37629 37.9998 7.51347 37.8625 7.51347 37.6938V36.141H17.4873V37.6938C17.4873 37.8626 17.6248 37.9998 17.7932 37.9998H19.7655C19.9343 37.9998 20.0716 37.8625 20.0716 37.6938V36.1393C20.1047 36.1379 20.1373 36.1346 20.1692 36.1295C21.4654 36.0962 22.5097 35.0325 22.5097 33.7286V30.317C22.5097 29.1579 21.6845 28.1877 20.5906 27.9633C20.5797 26.5943 20.5509 25.2257 20.5056 23.8575H22.1844C22.3464 23.8575 22.4778 23.7261 22.4778 23.564V22.5641H22.9181C22.968 22.5641 23.0085 22.5234 23.0085 22.4734V19.7202C23.0085 19.6702 22.968 19.6295 22.9181 19.6295ZM6.20687 19.2887H18.7937C18.9201 20.993 19.0214 22.7271 19.0951 24.4507H5.90546C5.97924 22.7269 6.08058 20.9926 6.20687 19.2887ZM3.10982 23.2705V22.5641H3.54988C3.60001 22.5641 3.64026 22.5235 3.64026 22.4735V19.7202C3.64026 19.6702 3.60001 19.6296 3.54988 19.6296H3.10982V19.1579H4.71706C4.63276 20.5284 4.56552 21.8993 4.51526 23.2706H3.10982V23.2705ZM3.92712 31.7847V30.2723C3.92712 29.8725 4.25129 29.5484 4.65116 29.5484H6.16347L3.92712 31.7847ZM17.1947 29.5716V30.1721C17.1947 30.3243 17.1459 30.4648 17.0639 30.58C17.1459 30.6952 17.1947 30.8357 17.1947 30.9879V31.6395C17.1947 31.8558 17.0969 32.0492 16.9434 32.1784C16.9797 32.2634 17 32.3569 17 32.4552C17 32.6056 16.9528 32.745 16.8725 32.8594C16.522 33.3773 15.9417 33.686 15.3166 33.686H9.68411C9.05283 33.686 8.46751 33.3714 8.11808 32.8444C7.98648 32.6459 7.96635 32.3962 8.0586 32.1797C7.90424 32.0505 7.80597 31.8565 7.80597 31.6395V30.988C7.80597 30.8358 7.85475 30.6953 7.9368 30.5801C7.85475 30.465 7.80597 30.3244 7.80597 30.1722V29.5717L5.95385 26.1853C5.91982 26.1231 5.93514 26.0454 5.99033 26.0008C6.04565 25.9562 6.12482 25.9575 6.17847 26.0039L8.43315 27.9518C8.77328 27.6475 9.21591 27.4741 9.68411 27.4741H15.3166C15.7848 27.4741 16.2274 27.6475 16.5675 27.9518L18.8223 26.0039C18.8759 25.9575 18.9551 25.9562 19.0104 26.0007C19.0656 26.0453 19.081 26.123 19.0469 26.1853L17.1947 29.5716ZM21.0735 30.2723V31.7847L18.8372 29.5484H20.3495C20.7494 29.5484 21.0735 29.8725 21.0735 30.2723ZM21.8908 19.6295H21.4508C21.4006 19.6295 21.3603 19.6701 21.3603 19.7202V22.4734C21.3603 22.5234 21.4006 22.5641 21.4508 22.5641H21.8908V23.2705H20.4855C20.4351 21.8991 20.3678 20.5282 20.2835 19.1578H21.8908V19.6295Z" fill="black"/>
<path d="M15.3165 28.1777H9.68399C9.27495 28.1777 8.91521 28.387 8.70508 28.7042H16.2955C16.0853 28.387 15.7255 28.1777 15.3165 28.1777Z" fill="black"/>
<path d="M18.4621 13.8071C18.4621 13.3613 18.1008 13 17.6553 13H15.4811V13.3435C15.4811 13.5662 15.3005 13.7469 15.0774 13.7469H9.92277C9.69975 13.7469 9.51905 13.5662 9.51905 13.3435V13H7.34482C6.89937 13 6.53809 13.3613 6.53809 13.8071V15.3477H18.4621V13.8071Z" fill="black"/>
<path d="M74.49 29.5215H66.5098V30.173H74.49V29.5215Z" fill="black"/>
<path d="M74.49 30.9883H66.5098V31.6398H74.49V30.9883Z" fill="black"/>
<path d="M67.6841 32.9816H73.3166C73.7256 32.9816 74.0853 32.7721 74.2955 32.4551H66.7051C66.9153 32.7721 67.2751 32.9816 67.6841 32.9816Z" fill="black"/>
<path d="M80.9181 19.6295H80.4778V18.8644C80.4778 18.7023 80.3464 18.5709 80.1844 18.5709H78.2459C78.2081 17.9906 78.1683 17.4103 78.1244 16.8302C78.0694 16.2603 77.6041 15.7993 77.0256 15.7852C73.0354 15.7852 67.9651 15.7852 63.9751 15.7852C63.3963 15.7993 62.9314 16.2603 62.876 16.8302C62.8323 17.4103 62.7923 17.9907 62.7546 18.5709H60.8164C60.6543 18.5709 60.5229 18.7023 60.5229 18.8644V19.6295H60.0826C60.0327 19.6295 59.9922 19.6701 59.9922 19.7202V22.4734C59.9922 22.5234 60.0327 22.5641 60.0826 22.5641H60.5229V23.564C60.5229 23.7261 60.6543 23.8575 60.8164 23.8575H62.4951C62.4499 25.2257 62.4212 26.5943 62.4102 27.9632C61.3163 28.1876 60.4911 29.1578 60.4911 30.317V33.7286C60.4911 35.0327 61.5355 36.0965 62.8319 36.1295C62.8637 36.1346 62.8962 36.1379 62.9292 36.1393V37.6938C62.9292 37.8626 63.0667 37.9998 63.2353 37.9998H65.2076C65.3763 37.9998 65.5135 37.8625 65.5135 37.6938V36.141H75.4873V37.6938C75.4873 37.8626 75.6248 37.9998 75.7932 37.9998H77.7655C77.9343 37.9998 78.0716 37.8625 78.0716 37.6938V36.1393C78.1047 36.1379 78.1373 36.1346 78.1692 36.1295C79.4654 36.0962 80.5097 35.0325 80.5097 33.7286V30.317C80.5097 29.1579 79.6845 28.1877 78.5906 27.9633C78.5797 26.5943 78.5509 25.2257 78.5056 23.8575H80.1844C80.3464 23.8575 80.4778 23.7261 80.4778 23.564V22.5641H80.9181C80.968 22.5641 81.0085 22.5234 81.0085 22.4734V19.7202C81.0085 19.6702 80.968 19.6295 80.9181 19.6295ZM64.2069 19.2887H76.7937C76.9201 20.993 77.0214 22.7271 77.0951 24.4507H63.9055C63.9792 22.7269 64.0806 20.9926 64.2069 19.2887ZM61.1098 23.2705V22.5641H61.5499C61.6 22.5641 61.6403 22.5235 61.6403 22.4735V19.7202C61.6403 19.6702 61.6 19.6296 61.5499 19.6296H61.1098V19.1579H62.7171C62.6328 20.5284 62.5655 21.8993 62.5153 23.2706H61.1098V23.2705ZM61.9271 31.7847V30.2723C61.9271 29.8725 62.2513 29.5484 62.6512 29.5484H64.1635L61.9271 31.7847ZM75.1947 29.5716V30.1721C75.1947 30.3243 75.1459 30.4648 75.0639 30.58C75.1459 30.6952 75.1947 30.8357 75.1947 30.9879V31.6395C75.1947 31.8558 75.0969 32.0492 74.9434 32.1784C74.9797 32.2634 75 32.3569 75 32.4552C75 32.6056 74.9528 32.745 74.8725 32.8594C74.522 33.3773 73.9417 33.686 73.3166 33.686H67.6841C67.0528 33.686 66.4675 33.3714 66.1181 32.8444C65.9865 32.6459 65.9664 32.3962 66.0586 32.1797C65.9042 32.0505 65.806 31.8565 65.806 31.6395V30.988C65.806 30.8358 65.8548 30.6953 65.9368 30.5801C65.8548 30.465 65.806 30.3244 65.806 30.1722V29.5717L63.9539 26.1853C63.9198 26.1231 63.9351 26.0454 63.9903 26.0008C64.0456 25.9562 64.1248 25.9575 64.1785 26.0039L66.4331 27.9518C66.7733 27.6475 67.2159 27.4741 67.6841 27.4741H73.3166C73.7848 27.4741 74.2274 27.6475 74.5675 27.9518L76.8223 26.0039C76.8759 25.9575 76.9551 25.9562 77.0104 26.0007C77.0656 26.0453 77.081 26.123 77.0469 26.1853L75.1947 29.5716ZM79.0735 30.2723V31.7847L76.8372 29.5484H78.3495C78.7494 29.5484 79.0735 29.8725 79.0735 30.2723ZM79.8908 19.6295H79.4508C79.4006 19.6295 79.3603 19.6701 79.3603 19.7202V22.4734C79.3603 22.5234 79.4006 22.5641 79.4508 22.5641H79.8908V23.2705H78.4855C78.4351 21.8991 78.3678 20.5282 78.2835 19.1578H79.8908V19.6295Z" fill="black"/>
<path d="M73.3165 28.1777H67.684C67.2749 28.1777 66.9152 28.387 66.7051 28.7042H74.2955C74.0853 28.387 73.7255 28.1777 73.3165 28.1777Z" fill="black"/>
<path d="M76.4621 13.8071C76.4621 13.3613 76.1008 13 75.6553 13H73.4811V13.3435C73.4811 13.5662 73.3005 13.7469 73.0774 13.7469H67.9228C67.6998 13.7469 67.519 13.5662 67.519 13.3435V13H65.3448C64.8994 13 64.5381 13.3613 64.5381 13.8071V15.3477H76.4621V13.8071Z" fill="black"/>
<path d="M48.0646 25.1113H35.9346V26.1017H48.0646V25.1113Z" fill="black"/>
<path d="M48.0646 27.3418H35.9346V28.3321H48.0646V27.3418Z" fill="black"/>
<path d="M37.7185 30.3725H46.2799C46.9016 30.3725 47.4485 30.0541 47.7679 29.5723H36.2305C36.55 30.0541 37.0969 30.3725 37.7185 30.3725Z" fill="black"/>
<path d="M57.8347 10.0778H57.1655V8.91481C57.1655 8.66849 56.9657 8.46874 56.7195 8.46874H53.773C53.7156 7.58666 53.655 6.70467 53.5884 5.82287C53.5048 4.95667 52.7975 4.25591 51.9181 4.23438C45.853 4.23438 38.1462 4.23438 32.0813 4.23438C31.2016 4.25581 30.495 4.95667 30.4107 5.82287C30.3442 6.70467 30.2835 7.58675 30.2262 8.46874H27.2801C27.0338 8.46874 26.834 8.66849 26.834 8.91481V10.0778H26.1647C26.0889 10.0778 26.0273 10.1395 26.0273 10.2156V14.4005C26.0273 14.4765 26.0889 14.5383 26.1647 14.5383H26.834V16.0582C26.834 16.3045 27.0338 16.5043 27.2801 16.5043H29.8318C29.763 18.584 29.7194 20.6642 29.7027 22.7451C28.04 23.0861 26.7857 24.5609 26.7857 26.3228V31.5083C26.7857 33.4906 28.3731 35.1076 30.3437 35.1578C30.392 35.1656 30.4415 35.1706 30.4917 35.1726V37.5355C30.4917 37.7921 30.7006 38.0007 30.9568 38.0007H33.9547C34.2112 38.0007 34.4197 37.792 34.4197 37.5355V35.1752H49.5799V37.5355C49.5799 37.7921 49.7888 38.0007 50.0449 38.0007H53.0428C53.2994 38.0007 53.5081 37.792 53.5081 37.5355V35.1726C53.5584 35.1706 53.6078 35.1656 53.6564 35.1578C55.6266 35.1072 57.2139 33.4904 57.2139 31.5083V26.3228C57.2139 24.561 55.9597 23.0863 54.2969 22.7451C54.2803 20.6643 54.2366 18.5841 54.1677 16.5043H56.7195C56.9657 16.5043 57.1655 16.3045 57.1655 16.0582V14.5383H57.8347C57.9106 14.5383 57.9722 14.4765 57.9722 14.4005V10.2156C57.9722 10.1396 57.9106 10.0778 57.8347 10.0778ZM32.4337 9.55983H51.5657C51.7577 12.1504 51.9118 14.7862 52.0238 17.406H31.9755C32.0877 14.7858 32.2417 12.1497 32.4337 9.55983ZM27.7261 15.6122V14.5384H28.395C28.4712 14.5384 28.5324 14.4766 28.5324 14.4006V10.2157C28.5324 10.1396 28.4712 10.0779 28.395 10.0779H27.7261V9.36096H30.1691C30.041 11.444 29.9388 13.5279 29.8624 15.6123H27.7261V15.6122ZM28.9684 28.5537V26.2549C28.9684 25.6472 29.4612 25.1544 30.069 25.1544H32.3677L28.9684 28.5537ZM49.1351 25.1898V26.1026C49.1351 26.3339 49.061 26.5475 48.9363 26.7226C49.061 26.8976 49.1351 27.1113 49.1351 27.3426V28.3329C49.1351 28.6618 48.9866 28.9557 48.7532 29.1521C48.8083 29.2813 48.8392 29.4235 48.8392 29.5729C48.8392 29.8015 48.7675 30.0133 48.6454 30.1872C48.1126 30.9745 47.2306 31.4436 46.2805 31.4436H37.7191C36.7595 31.4436 35.8698 30.9654 35.3387 30.1644C35.1387 29.8626 35.1081 29.4831 35.2483 29.1541C35.0137 28.9577 34.8643 28.6628 34.8643 28.333V27.3427C34.8643 27.1114 34.9384 26.8978 35.0632 26.7227C34.9384 26.5477 34.8643 26.334 34.8643 26.1027V25.1899L32.0491 20.0427C31.9973 19.9481 32.0206 19.83 32.1045 19.7621C32.1886 19.6944 32.3089 19.6964 32.3905 19.7669L35.8176 22.7277C36.3346 22.2652 37.0074 22.0016 37.7191 22.0016H46.2805C46.9921 22.0016 47.6649 22.2651 48.1818 22.7277L51.609 19.7668C51.6906 19.6963 51.8109 19.6943 51.895 19.7621C51.979 19.8299 52.0023 19.948 51.9505 20.0426L49.1351 25.1898ZM55.031 26.2549V28.5537L51.6317 25.1544H53.9304C54.5383 25.1544 55.031 25.6472 55.031 26.2549ZM56.2733 10.0778H55.6044C55.5282 10.0778 55.4669 10.1395 55.4669 10.2156V14.4005C55.4669 14.4765 55.5282 14.5383 55.6044 14.5383H56.2733V15.6121H54.1371C54.0606 13.5276 53.9583 11.4439 53.8302 9.36077H56.2733V10.0778Z" fill="black"/>
<path d="M46.2808 23.0703H37.7194C37.0977 23.0703 36.5508 23.3884 36.2314 23.8706H47.7688C47.4493 23.3884 46.9024 23.0703 46.2808 23.0703Z" fill="black"/>
<path d="M51.0619 1.22672C51.0619 0.549149 50.5128 0 49.8357 0H46.5309V0.522159C46.5309 0.860651 46.2563 1.13523 45.9172 1.13523H38.0822C37.7432 1.13523 37.4686 0.860651 37.4686 0.522159V0H34.1637C33.4866 0 32.9375 0.549149 32.9375 1.22672V3.56849H51.0619V1.22672Z" fill="black"/>
</svg>
