<svg width="39" height="39" viewBox="0 0 39 39" fill="none" xmlns="http://www.w3.org/2000/svg">
<g clip-path="url(#clip0_51_2112)">
<path d="M23.0307 0.214844C18.9466 0.214844 15.2165 1.75657 12.3896 4.28764C13.0167 5.28467 13.3729 6.44466 13.4063 7.64204L13.4065 7.64553L13.4066 7.64902C13.4209 8.18855 13.4531 8.72822 13.4993 9.26706C15.6435 6.32076 19.1162 4.40052 23.0307 4.40052C29.5284 4.40052 34.8147 9.68674 34.8147 16.1844C34.8147 22.6136 29.6387 27.8533 23.2351 27.9632C23.8199 28.4518 24.4236 28.9175 25.0456 29.3548L25.0484 29.3569L25.0513 29.3588C25.8982 29.9563 26.588 30.7396 27.072 31.6354C33.9272 29.841 39.0002 23.5943 39.0002 16.1844C39.0003 7.37876 31.8366 0.214844 23.0307 0.214844Z" fill="black"/>
<path d="M22.6384 32.7797C20.814 31.3234 19.6758 30.3535 18.0469 28.8446C17.5676 28.4007 16.9819 28.1241 16.3804 28.1241C15.9202 28.1241 15.4656 28.2708 15.0914 28.5778C14.7052 28.9029 14.319 29.228 13.9327 29.553C10.7936 25.8224 8.46255 21.4753 7.0923 16.7963C7.57672 16.6545 8.06128 16.5126 8.5457 16.3709C9.61333 16.044 10.1156 14.9042 9.95893 13.7617C9.61807 11.2748 9.43293 10.0394 9.22197 7.75971C9.11384 6.59121 8.33614 5.57618 7.2215 5.51549C7.04765 5.49861 6.87395 5.49023 6.70164 5.49023C2.55643 5.49023 -1.05274 10.2948 0.282351 16.1726C1.94364 23.4518 5.54011 30.1588 10.6839 35.5706C12.791 37.7828 15.3723 38.7846 17.7035 38.7846C20.1629 38.7846 22.3442 37.6707 23.4007 35.6879C23.967 34.7259 23.5557 33.5119 22.6384 32.7797Z" fill="black"/>
<path d="M18.2279 16.4799C17.124 17.5041 16.4017 18.3095 16.0202 18.9415C15.7509 19.3873 15.5545 19.8586 15.436 20.3423C15.3804 20.57 15.4316 20.8064 15.5765 20.991C15.7214 21.1753 15.9387 21.281 16.1731 21.281H21.4412C22.0867 21.281 22.6118 20.7559 22.6118 20.1104C22.6118 19.465 22.0867 18.9398 21.4412 18.9398H19.0622C19.0816 18.917 19.1016 18.8941 19.1219 18.871C19.2774 18.6961 19.658 18.3305 20.2531 17.7849C20.8771 17.2121 21.2985 16.7832 21.5411 16.4736C21.9068 16.0082 22.1789 15.5538 22.3495 15.1232C22.5235 14.6844 22.6118 14.2166 22.6118 13.7326C22.6118 12.8642 22.2973 12.1271 21.6772 11.5414C21.061 10.9604 20.2129 10.666 19.1559 10.666C18.1954 10.666 17.3796 10.9174 16.7314 11.4133C16.3403 11.7127 16.0392 12.1275 15.8363 12.6465C15.6993 12.9972 15.7348 13.3983 15.9312 13.7193C16.1277 14.0405 16.4687 14.2547 16.8433 14.2921C16.885 14.2962 16.9266 14.2983 16.9676 14.2983C17.4948 14.2983 17.965 13.9631 18.1378 13.4641C18.1919 13.3077 18.2635 13.1834 18.3508 13.0944C18.5347 12.907 18.7824 12.8158 19.1081 12.8158C19.4392 12.8158 19.6866 12.902 19.8641 13.0793C20.0411 13.2564 20.1272 13.5146 20.1272 13.869C20.1272 14.1982 20.0096 14.5414 19.7777 14.8895C19.6534 15.0717 19.2818 15.498 18.2279 16.4799Z" fill="black"/>
<path d="M28.775 10.666H27.895C27.6443 10.666 27.4102 10.7896 27.2687 10.9967L23.1991 16.954C23.0804 17.1279 23.0176 17.3311 23.0176 17.5417V18.507C23.0176 18.9252 23.3579 19.2655 23.776 19.2655H27.1169V20.0729C27.1169 20.7391 27.6589 21.2812 28.3252 21.2812C28.9914 21.2812 29.5334 20.7391 29.5334 20.0729V19.2655H29.6541C30.2732 19.2655 30.7768 18.7618 30.7768 18.1427C30.7768 17.5237 30.2732 17.02 29.6541 17.02H29.5334V11.4245C29.5334 11.0063 29.1931 10.666 28.775 10.666ZM27.117 17.02H25.6174L27.117 14.7907V17.02Z" fill="black"/>
</g>
<defs>
<clipPath id="clip0_51_2112">
<rect width="39" height="39" fill="white"/>
</clipPath>
</defs>
</svg>
