<svg width="36" height="32" viewBox="0 0 36 32" fill="none" xmlns="http://www.w3.org/2000/svg">
<path d="M25.6745 31.9941C24.1663 32.0017 22.6651 31.8109 21.2194 31.4275C16.505 29.9826 12.2448 27.5542 8.79244 24.3439C5.38971 21.3893 2.72678 17.8243 0.978916 13.8839C-0.766303 9.50379 -0.171393 5.83222 2.71084 3.25853L5.16957 0.980116C5.95395 0.283094 7.04163 -0.071084 8.14412 0.0118948C9.24215 0.0761947 10.2765 0.495992 11.0526 1.19249L15.098 4.80517C15.9677 5.58571 16.4891 6.62247 16.5655 7.72137V8.21733V8.21706C16.6364 8.93176 16.4466 9.64747 16.0252 10.2581C15.6035 10.8687 14.9723 11.3412 14.2255 11.6055L12.4274 12.243H12.4277C11.8644 12.4361 11.4121 12.8232 11.1718 13.3174C10.8941 13.9143 10.8941 14.5857 11.1718 15.1826C11.8986 16.7018 12.9545 18.0779 14.2786 19.2321C15.724 20.5358 17.3874 21.631 19.2096 22.4788C20.0164 22.8967 20.9966 22.9492 21.8536 22.6203C22.4916 22.3515 22.9448 21.8236 23.07 21.2036L23.3872 19.9049C23.5661 19.1049 24.0704 18.392 24.8025 17.9037C25.5346 17.4154 26.4432 17.1864 27.3533 17.2605C28.5782 17.349 29.7273 17.8265 30.5923 18.6063L34.651 22.2308H34.6507C35.4628 22.8978 35.9464 23.8246 35.9958 24.8089C36.0454 25.7932 35.657 26.755 34.9151 27.4845L32.4299 29.6686C30.6304 31.2379 28.1879 32.0788 25.6743 31.9942L25.6745 31.9941ZM7.86725 2.36117C7.56212 2.35247 7.26615 2.45472 7.04745 2.64472L4.58841 4.84042C2.44689 6.74124 2.02377 9.49216 3.46469 12.9987C5.07884 16.6105 7.53493 19.8744 10.6697 22.5736C13.8063 25.5151 17.6871 27.7418 21.9862 29.0669C24.5509 29.7633 28.0941 30.1294 30.5265 27.969L32.9855 25.7731C33.2213 25.4827 33.3237 25.123 33.272 24.7675C33.2204 24.412 33.0186 24.0873 32.7078 23.8604L28.6624 20.2478C28.2525 19.8878 27.7148 19.6664 27.142 19.6222C26.8685 19.59 26.5911 19.6511 26.366 19.7935C26.1405 19.9355 25.9832 20.1484 25.9257 20.3895L25.6217 21.6882C25.3299 23.0258 24.3505 24.1627 22.9777 24.7577C21.3854 25.3963 19.5502 25.3306 18.0201 24.5806C16.0162 23.608 14.1886 22.3702 12.5998 20.9089C11.0037 19.5367 9.72743 17.8955 8.84537 16.0804C8.28706 14.9032 8.28706 13.5743 8.84537 12.3968C9.35765 11.3129 10.3403 10.461 11.5688 10.0356L13.3668 9.41H13.3665C13.5896 9.3262 13.7755 9.17889 13.8951 8.991C14.0146 8.8031 14.0612 8.58517 14.0276 8.37119V7.88709C13.97 7.3632 13.708 6.87434 13.2875 6.50566L9.17589 2.88138C8.85217 2.5915 8.42813 2.40835 7.97278 2.36171L7.86725 2.36117Z" fill="black"/>
</svg>
